<svg version="1.2" xmlns="http://www.w3.org/2000/svg" viewBox="0 0 512 512" width="512" height="512"><style>.a{fill:#ff5d01}</style><path fill-rule="evenodd" class="a" d="m214.5 69q0.6-2.9 1.5-5.6 0.8-2.8 1.9-5.5 1.1-2.6 2.5-5.2 1.3-2.6 2.9-5 1.1-1.4 2.4-2.6 1.3-1.3 2.8-2.3 1.4-1.1 3-2 1.6-0.8 3.2-1.5 2.8-0.8 5.7-1.3 2.8-0.5 5.7-0.7 2.9-0.3 5.8-0.3 2.9 0 5.7 0.3h96.6q2.9-0.3 5.8-0.3 2.9 0 5.8 0.2 2.8 0.3 5.7 0.8 2.8 0.5 5.6 1.3 1.7 0.6 3.3 1.5 1.5 0.9 3 1.9 1.4 1.1 2.7 2.3 1.3 1.2 2.5 2.6 1.6 2.4 2.9 5 1.3 2.6 2.5 5.3 1.1 2.6 1.9 5.4 0.9 2.8 1.5 5.6l74.2 233.5q2.2 5.1 3.9 10.4 1.7 5.3 2.9 10.7 1.2 5.5 1.9 11 0.7 5.5 0.9 11.1-0.3 3.4-1 6.8-0.7 3.3-1.8 6.6-1.2 3.2-2.7 6.3-1.6 3-3.5 5.9-3.6 4.2-7.7 8-4 3.9-8.4 7.4-4.3 3.4-9 6.5-4.6 3.1-9.5 5.7l-84.9 55.9q-3.9 3.1-8 5.8-4.1 2.7-8.5 5.1-4.3 2.4-8.9 4.4-4.5 2.1-9.2 3.7-3 0.7-6.1 1.1-3.1 0.3-6.2 0.3-3.1 0-6.1-0.3-3.1-0.4-6.1-1.1-4.7-1.7-9.2-3.7-4.5-2-8.8-4.4-4.3-2.4-8.4-5.2-4.1-2.7-8-5.8l-83.9-55.9q-4.9-2.6-9.5-5.7-4.6-3-8.9-6.5-4.3-3.4-8.3-7.3-4-3.8-7.6-8-1.9-2.8-3.4-5.9-1.6-3-2.7-6.2-1.2-3.2-1.9-6.6-0.7-3.3-1-6.7 0.2-5.5 0.9-11 0.7-5.5 1.8-10.9 1.2-5.4 2.9-10.7 1.6-5.3 3.8-10.4c0 0.1 73.1-233.8 73.1-233.8zm141.6 15.7q-1.1-1.1-2.3-2-1.2-0.8-2.5-1.6-1.3-0.7-2.7-1.3-2.4-0.6-4.8-1-2.4-0.5-4.8-0.7-2.4-0.2-4.8-0.2-2.5 0.1-4.9 0.3h-45.7q-2.4-0.2-4.8-0.3-2.5 0-4.9 0.2-2.4 0.2-4.8 0.7-2.4 0.4-4.7 1-1.4 0.6-2.7 1.3-1.3 0.7-2.5 1.6-1.2 0.9-2.3 2-1.1 1-2 2.2-1.3 2-2.5 4.2-1.1 2.1-2 4.4-0.9 2.2-1.6 4.6-0.7 2.3-1.2 4.7l-63.9 209.2q9-4.7 18.3-8.7 9.3-3.9 18.9-7.2 9.6-3.2 19.4-5.7 9.9-2.5 19.9-4.3l40.9-140q0.1-0.4 0.3-0.8 0.2-0.4 0.4-0.7 0.3-0.4 0.6-0.7 0.3-0.3 0.6-0.6c0.7-0.5 1.5-0.8 2.4-1 0.8-0.1 1.7 0 2.5 0.2 0.9 0.3 1.6 0.8 2.2 1.4 0.6 0.6 1.1 1.4 1.3 2.2l41.4 140.1q9.9 1.7 19.7 4.2 9.8 2.5 19.4 5.7 9.5 3.3 18.8 7.2 9.3 4 18.2 8.6l-63.6-209.2q-0.5-2.4-1.2-4.7-0.8-2.3-1.7-4.6-0.9-2.2-2-4.4-1.1-2.1-2.4-4.2c-0.5-0.7-1.2-1.4-1.9-2.1zm-108.4 232.8q-0.8 2.5-1.3 5-0.6 2.5-0.9 5.1-0.4 2.6-0.6 5.2-0.1 2.5-0.1 5.1-0.1 6 0.8 11.8 1 5.9 3.1 11.4 2.1 5.6 5.2 10.7 3.1 5 7.1 9.4 0-0.8 0.1-1.6 0-0.9 0.2-1.7 0.2-0.8 0.4-1.6 0.3-0.7 0.6-1.5 0.6-1.5 1.5-2.9 0.9-1.3 2.1-2.5 1.2-1.2 2.5-2.1 1.4-0.9 2.9-1.5 0.8-0.3 1.5-0.6 0.8-0.2 1.6-0.4 0.8-0.1 1.7-0.2 0.8-0.1 1.6-0.1c15.7 0 15.7 13.8 15.7 25v1c0 4 0.6 7.9 1.8 11.8 1.2 3.8 2.9 7.5 5.1 10.8 2.2 3.3 4.9 6.3 8 8.8 3.1 2.6 6.6 4.7 10.3 6.2q-0.9-1.7-1.5-3.6-0.7-1.8-1.1-3.7-0.4-1.9-0.6-3.8-0.3-1.9-0.3-3.9c0-16.1 9.5-22.2 20.6-29.2q3.9-2.1 7.5-4.7 3.6-2.6 6.8-5.7 3.2-3 6-6.5 2.7-3.5 5-7.3 2.2-4.1 3.5-8.5 1.4-4.4 1.8-9 0.4-4.6 0-9.2-0.5-4.6-1.9-9-6.1 4-12.8 7.1-6.7 3-13.8 4.9-7.1 2-14.4 2.7-7.3 0.8-14.7 0.4c-29.6 0-54.5-9.2-61-21.6z"/></svg>